<svg id="Layer_1" data-name="Layer 1" xmlns="http://www.w3.org/2000/svg" viewBox="0 0 345.37 130.22"><defs><style>.cls-1{fill:#f4d80c;}.cls-2{fill:#fff;}</style></defs><title>HMR_Logo_Horizontal_RGB_NoBackground</title><polygon class="cls-1" points="3.75 18.55 22.98 18.55 22.98 33.54 26.73 33.54 26.73 0.24 22.98 0.24 22.98 15.03 3.75 15.03 3.75 0.24 0 0.24 0 33.54 3.75 33.54 3.75 18.55"/><polygon class="cls-1" points="57.04 18.45 75.21 18.45 75.21 15.03 57.04 15.03 57.04 3.66 77.35 3.66 77.35 0.24 53.29 0.24 53.29 33.54 77.59 33.54 77.59 30.11 57.04 30.11 57.04 18.45"/><path class="cls-1" d="M163.66,49,148.49,82.57h3.86l3.94-8.8h18.13l3.9,8.8h4L167.19,49Zm-5.89,21.31,7.61-16.94,7.56,16.94Z" transform="translate(-49.06 -49.04)"/><path class="cls-1" d="M229.94,82.57h4.61L224.33,69c5.23-1,9-4.19,9-9.71v-.09a9.23,9.23,0,0,0-2.56-6.57c-2.09-2.09-5.38-3.33-9.47-3.33H207v33.3h3.75V69.63h9.52ZM210.76,52.74H221c5.38,0,8.52,2.48,8.52,6.57v.09c0,4.29-3.57,6.86-8.57,6.86H210.76Z" transform="translate(-49.06 -49.04)"/><polygon class="cls-1" points="269 33.54 272.75 33.54 272.75 0.24 268.95 0.24 256.81 18.41 244.68 0.24 240.88 0.24 240.88 33.54 244.54 33.54 244.54 6.61 256.67 24.4 256.86 24.4 269 6.56 269 33.54"/><polygon class="cls-1" points="313.52 33.54 313.52 20.31 327.37 0.24 322.99 0.24 311.67 16.89 300.44 0.24 295.88 0.24 309.72 20.36 309.72 33.54 313.52 33.54"/><path class="cls-2" d="M117.13,127.41v-.22c0-7.56-2.31-13.48-6.8-17.86-5.15-5.26-13.26-8.34-25-8.34H49.06v76.74H70.32V154.49h9.32l15.45,23.24h24.56L101.34,151C110.88,146.92,117.13,139.14,117.13,127.41Zm-21.38,1.32c0,5.59-4.16,9.1-11.4,9.1h-14V119.41H84.24c7.13,0,11.51,3.07,11.51,9.1Z" transform="translate(-49.06 -49.04)"/><path class="cls-2" d="M168.87,99.46c-23.68,0-41.44,17.87-41.44,39.9v.22c0,22,17.54,39.68,41.22,39.68s41.43-17.86,41.43-39.9v-.22C210.08,117.11,192.54,99.46,168.87,99.46Zm19.51,40.12c0,11.07-7.79,20.5-19.51,20.5s-19.63-9.65-19.63-20.72v-.22c0-11.07,7.79-20.5,19.41-20.5s19.73,9.65,19.73,20.72Z" transform="translate(-49.06 -49.04)"/><path class="cls-2" d="M245,100.45l-32.67,77.28h22.36L240.12,164h29.6l5.59,13.71h22.8l-32.66-77.28Zm1.42,47L255,125.66l8.55,21.81Z" transform="translate(-49.06 -49.04)"/><path class="cls-2" d="M378,127.41v-.22c0-7.56-2.3-13.48-6.8-17.86-5.15-5.26-13.26-8.34-25-8.34H310v76.74h21.26V154.49h9.32L356,177.73h24.55L362.23,151C371.77,146.92,378,139.14,378,127.41Zm-21.37,1.32c0,5.59-4.17,9.1-11.4,9.1h-14V119.41h13.93c7.12,0,11.51,3.07,11.51,9.1Z" transform="translate(-49.06 -49.04)"/><polygon class="cls-2" points="335.88 124.97 337.27 124.97 337.27 128.69 338.33 128.69 338.33 124.97 339.72 124.97 339.72 124.03 335.88 124.03 335.88 124.97"/><polygon class="cls-2" points="343.05 126 341.82 124.03 340.71 124.03 340.71 128.69 341.7 128.69 341.7 125.54 342.99 127.59 343.08 127.59 344.37 125.54 344.37 128.69 345.37 128.69 345.37 124.03 344.28 124.03 343.05 126"/></svg>