<?xml version="1.0" encoding="utf-8"?>
<!-- Generator: Adobe Illustrator 22.1.0, SVG Export Plug-In . SVG Version: 6.00 Build 0)  -->
<svg version="1.1" id="Layer_1" xmlns="http://www.w3.org/2000/svg" xmlns:xlink="http://www.w3.org/1999/xlink" x="0px" y="0px"
	 viewBox="0 0 427 226.8" style="enable-background:new 0 0 427 226.8;" xml:space="preserve">
<style type="text/css">
	.st0{fill:#F4D80C;}
	.st1{fill:#FFFFFF;}
</style>
<g>
	<rect width="427" height="226.8"/>
	<polygon class="st0" points="52.8,67.6 72,67.6 72,82.6 75.8,82.6 75.8,49.3 72,49.3 72,64.1 52.8,64.1 52.8,49.3 49.1,49.3 
		49.1,82.6 52.8,82.6 	"/>
	<polygon class="st0" points="106.1,67.5 124.3,67.5 124.3,64.1 106.1,64.1 106.1,52.7 126.4,52.7 126.4,49.3 102.3,49.3 
		102.3,82.6 126.6,82.6 126.6,79.1 106.1,79.1 	"/>
	<path class="st0" d="M163.7,49l-15.2,33.5h3.9l3.9-8.8h18.1l3.9,8.8h4L167.2,49H163.7z M157.8,70.3l7.6-16.9l7.6,16.9H157.8z"/>
	<path class="st0" d="M229.9,82.6h4.6L224.3,69c5.2-1,9-4.2,9-9.7v-0.1c0-2.6-0.9-4.9-2.6-6.6c-2.1-2.1-5.4-3.3-9.5-3.3H207v33.3
		h3.8V69.6h9.5L229.9,82.6z M210.8,52.7H221c5.4,0,8.5,2.5,8.5,6.6v0.1c0,4.3-3.6,6.9-8.6,6.9h-10.2V52.7z"/>
	<polygon class="st0" points="318.1,82.6 321.8,82.6 321.8,49.3 318,49.3 305.9,67.4 293.7,49.3 289.9,49.3 289.9,82.6 293.6,82.6 
		293.6,55.6 305.7,73.4 305.9,73.4 318.1,55.6 	"/>
	<polygon class="st0" points="362.6,82.6 362.6,69.3 376.4,49.3 372,49.3 360.7,65.9 349.5,49.3 344.9,49.3 358.8,69.4 358.8,82.6 	
		"/>
	<path class="st1" d="M117.1,127.4v-0.2c0-7.6-2.3-13.5-6.8-17.9c-5.2-5.3-13.3-8.3-25-8.3H49.1v76.7h21.3v-23.2h9.1h0.2l15.5,23.2
		h24.6L101.3,151C110.9,146.9,117.1,139.1,117.1,127.4z M95.8,128.7c0,5.6-4.2,9.1-11.4,9.1h-14v-18.4h13.9c7.1,0,11.5,3.1,11.5,9.1
		V128.7z"/>
	<path class="st1" d="M168.9,99.5c-23.7,0-41.4,17.9-41.4,39.9v0.2c0,22,17.5,39.7,41.2,39.7c23.7,0,41.4-17.9,41.4-39.9v-0.2
		C210.1,117.1,192.5,99.5,168.9,99.5z M188.4,139.6c0,11.1-7.8,20.5-19.5,20.5c-11.6,0-19.6-9.6-19.6-20.7v-0.2
		c0-11.1,7.8-20.5,19.4-20.5c11.7,0,19.7,9.6,19.7,20.7V139.6z"/>
	<path class="st1" d="M244.9,100.4l-32.7,77.3h22.4l5.5-13.7h29.6l5.6,13.7h22.8l-32.7-77.3H244.9z M246.4,147.5l8.7-21.8l8.6,21.8
		H246.4z"/>
	<path class="st1" d="M378,127.4v-0.2c0-7.6-2.3-13.5-6.8-17.9c-5.2-5.3-13.3-8.3-25-8.3h-36.3v76.7h21.3v-23.2h9.1h0.2l15.5,23.2
		h24.6L362.2,151C371.8,146.9,378,139.1,378,127.4z M356.6,128.7c0,5.6-4.2,9.1-11.4,9.1h-14v-18.4h13.9c7.1,0,11.5,3.1,11.5,9.1
		V128.7z"/>
	<polygon class="st1" points="384.9,174 386.3,174 386.3,177.7 387.4,177.7 387.4,174 388.8,174 388.8,173.1 384.9,173.1 	"/>
	<polygon class="st1" points="392.1,175 390.9,173.1 389.8,173.1 389.8,177.7 390.8,177.7 390.8,174.6 392,176.6 392.1,176.6 
		393.4,174.6 393.4,177.7 394.4,177.7 394.4,173.1 393.3,173.1 	"/>
</g>
</svg>
