<?xml version="1.0" encoding="utf-8"?>
<!-- Generator: Adobe Illustrator 22.1.0, SVG Export Plug-In . SVG Version: 6.00 Build 0)  -->
<svg version="1.1" id="Layer_1" xmlns="http://www.w3.org/2000/svg" xmlns:xlink="http://www.w3.org/1999/xlink" x="0px" y="0px"
	 viewBox="0 0 427 576" style="enable-background:new 0 0 427 576;" xml:space="preserve">
<style type="text/css">
	.st0{fill:#FFFFFF;}
	.st1{fill:#F4D70C;}
</style>
<g>
	<path class="st0" d="M117.1,476.6v-0.2c0-7.6-2.3-13.5-6.8-17.9c-5.2-5.3-13.3-8.3-25-8.3H49.1V527h21.3v-23.2h9.1h0.2L95.1,527
		h24.6l-18.3-26.7C110.9,496.2,117.1,488.4,117.1,476.6z M95.8,478c0,5.6-4.2,9.1-11.4,9.1h-14v-18.4h13.9c7.1,0,11.5,3.1,11.5,9.1
		V478z"/>
	<polygon class="st0" points="52.8,416.8 72,416.8 72,431.8 75.8,431.8 75.8,398.5 72,398.5 72,413.3 52.8,413.3 52.8,398.5 
		49.1,398.5 49.1,431.8 52.8,431.8 	"/>
	<path class="st0" d="M163.7,398.3l-15.2,33.5h3.9l3.9-8.8h18.1l3.9,8.8h4l-15.2-33.5H163.7z M157.8,419.6l7.6-16.9l7.6,16.9H157.8z
		"/>
	<polygon class="st0" points="106.1,416.7 124.3,416.7 124.3,413.3 106.1,413.3 106.1,401.9 126.4,401.9 126.4,398.5 102.3,398.5 
		102.3,431.8 126.6,431.8 126.6,428.4 106.1,428.4 	"/>
	<path class="st0" d="M168.9,448.7c-23.7,0-41.4,17.9-41.4,39.9v0.2c0,22,17.5,39.7,41.2,39.7c23.7,0,41.4-17.9,41.4-39.9v-0.2
		C210.1,466.3,192.5,448.7,168.9,448.7z M188.4,488.8c0,11.1-7.8,20.5-19.5,20.5c-11.6,0-19.6-9.6-19.6-20.7v-0.2
		c0-11.1,7.8-20.5,19.4-20.5c11.7,0,19.7,9.6,19.7,20.7V488.8z"/>
	<polygon class="st0" points="362.6,431.8 362.6,418.6 376.4,398.5 372,398.5 360.7,415.2 349.5,398.5 344.9,398.5 358.8,418.6 
		358.8,431.8 	"/>
	<path class="st0" d="M378,476.6v-0.2c0-7.6-2.3-13.5-6.8-17.9c-5.2-5.3-13.3-8.3-25-8.3h-36.3V527h21.3v-23.2h9.1h0.2L356,527h24.6
		l-18.3-26.7C371.8,496.2,378,488.4,378,476.6z M356.6,478c0,5.6-4.2,9.1-11.4,9.1h-14v-18.4h13.9c7.1,0,11.5,3.1,11.5,9.1V478z"/>
	<path class="st0" d="M244.9,449.7L212.3,527h22.4l5.5-13.7h29.6l5.6,13.7h22.8l-32.7-77.3H244.9z M246.4,496.7l8.7-21.8l8.6,21.8
		H246.4z"/>
	<polygon class="st0" points="318.1,431.8 321.8,431.8 321.8,398.5 318,398.5 305.9,416.7 293.7,398.5 289.9,398.5 289.9,431.8 
		293.6,431.8 293.6,404.9 305.7,422.7 305.9,422.7 318.1,404.8 	"/>
	<path class="st0" d="M229.9,431.8h4.6l-10.2-13.6c5.2-1,9-4.2,9-9.7v-0.1c0-2.6-0.9-4.9-2.6-6.6c-2.1-2.1-5.4-3.3-9.5-3.3H207v33.3
		h3.8v-12.9h9.5L229.9,431.8z M210.8,402H221c5.4,0,8.5,2.5,8.5,6.6v0.1c0,4.3-3.6,6.9-8.6,6.9h-10.2V402z"/>
	<path d="M0,0v576h427V0H0z M116.6,124.3h93.8c12.6,0,25.2-3.5,35.7-9.8l111.4-63c4.2-2.8,9.8-2.8,14-0.7c4.2,2.8,7,7,6.3,12.6
		v245.7c0,4.9-2.8,9.8-7,11.9c-1.4,0.7-4.2,1.4-6.3,1.4c-2.1,0-4.9-0.7-7-2.1l-111.4-63c-10.5-6.3-23.1-9.8-35.7-9.8h-93.8
		c-37.1,0-67.2-28-67.2-61.6C49.4,152.3,79.5,124.3,116.6,124.3z M344.9,398.5h4.6l11.2,16.6l11.3-16.6h4.4l-13.8,20.1v13.2h-3.8
		v-13.2L344.9,398.5z M179.6,361c-1.4,6.3-7,10.5-13.3,10.5h-61.6c-7.7,0-14-6.3-14-14v-85.4c8.4,2.1,16.8,3.5,25.9,3.5h81.9
		l-2.1,9.1l-6.3,28L179.6,361z M182.4,431.8h-4l-3.9-8.8h-18.1l-3.9,8.8h-3.9l15.2-33.5h3.5L182.4,431.8z M49.1,398.5h3.8v14.8H72
		v-14.8h3.8v33.3H72v-15H52.8v15h-3.8V398.5z M95.1,527l-15.5-23.2h-0.2h-9.1V527H49.1v-76.7h36.3c11.7,0,19.8,3.1,25,8.3
		c4.5,4.4,6.8,10.3,6.8,17.9v0.2c0,11.7-6.2,19.5-15.8,23.6l18.3,26.7H95.1z M126.6,431.8h-24.3v-33.3h24.1v3.4h-20.3v11.4h18.2v3.4
		h-18.2v11.7h20.6V431.8z M210.1,488.6c0,22-17.8,39.9-41.4,39.9c-23.7,0-41.2-17.6-41.2-39.7v-0.2c0-22,17.8-39.9,41.4-39.9
		c23.7,0,41.2,17.6,41.2,39.7V488.6z M210.8,431.8H207v-33.3h14.3c4.1,0,7.4,1.2,9.5,3.3c1.6,1.6,2.6,4,2.6,6.6v0.1
		c0,5.5-3.8,8.8-9,9.7l10.2,13.6h-4.6l-9.7-12.9h-9.5V431.8z M275.3,527l-5.6-13.7h-29.6l-5.5,13.7h-22.4l32.7-77.3h20.5l32.7,77.3
		H275.3z M305.7,422.7l-12.1-17.8v26.9h-3.7v-33.3h3.8l12.1,18.2l12.1-18.2h3.8v33.3h-3.8v-27l-12.1,17.8H305.7z M356,527
		l-15.5-23.2h-0.2h-9.1V527h-21.3v-76.7h36.3c11.7,0,19.8,3.1,25,8.3c4.5,4.4,6.8,10.3,6.8,17.9v0.2c0,11.7-6.2,19.5-15.8,23.6
		l18.3,26.7H356z M387.8,523.1h-1.4v3.7h-1.1v-3.7H384v-0.9h3.8V523.1z M393.5,526.8h-1v-3.1l-1.3,2h-0.1l-1.3-2v3.1h-1v-4.6h1.1
		l1.2,2l1.2-2h1.1V526.8z"/>
	<polygon points="157.8,419.6 172.9,419.6 165.4,402.6 	"/>
	<path d="M345.1,468.7h-13.9v18.4h14c7.2,0,11.4-3.5,11.4-9.1v-0.2C356.6,471.7,352.3,468.7,345.1,468.7z"/>
	<path d="M229.6,408.6L229.6,408.6c0-4.2-3.1-6.7-8.5-6.7h-10.3v13.5H221C226,415.5,229.6,412.9,229.6,408.6z"/>
	<path d="M168.6,467.9c-11.6,0-19.4,9.4-19.4,20.5v0.2c0,11.1,8,20.7,19.6,20.7c11.7,0,19.5-9.4,19.5-20.5v-0.2
		C188.4,477.5,180.4,467.9,168.6,467.9z"/>
	<polygon points="246.4,496.7 263.6,496.7 255,474.9 	"/>
	<path d="M84.2,468.7H70.3v18.4h14c7.2,0,11.4-3.5,11.4-9.1v-0.2C95.8,471.7,91.4,468.7,84.2,468.7z"/>
	<path class="st1" d="M196.4,284.7l2.1-9.1h-81.9c-9.1,0-17.5-1.4-25.9-3.5v85.4c0,7.7,6.3,14,14,14h61.6c6.3,0,11.9-4.2,13.3-10.5
		l10.5-48.3L196.4,284.7z"/>
	<path class="st1" d="M116.6,247.6h93.8c12.6,0,25.2,3.5,35.7,9.8l111.4,63c2.1,1.4,4.9,2.1,7,2.1c2.1,0,4.9-0.7,6.3-1.4
		c4.2-2.1,7-7,7-11.9V63.4c0.7-5.6-2.1-9.8-6.3-12.6c-4.2-2.1-9.8-2.1-14,0.7l-111.4,63c-10.5,6.3-23.1,9.8-35.7,9.8h-93.8
		c-37.1,0-67.2,28-67.2,61.6C49.4,219.5,79.5,247.6,116.6,247.6z"/>
	<polygon points="384,523.1 385.4,523.1 385.4,526.8 386.5,526.8 386.5,523.1 387.8,523.1 387.8,522.2 384,522.2 	"/>
	<polygon class="st0" points="384,523.1 385.4,523.1 385.4,526.8 386.5,526.8 386.5,523.1 387.8,523.1 387.8,522.2 384,522.2 	"/>
	<polygon points="391.2,524.1 389.9,522.2 388.8,522.2 388.8,526.8 389.8,526.8 389.8,523.7 391.1,525.7 391.2,525.7 392.5,523.7 
		392.5,526.8 393.5,526.8 393.5,522.2 392.4,522.2 	"/>
	<polygon class="st0" points="391.2,524.1 389.9,522.2 388.8,522.2 388.8,526.8 389.8,526.8 389.8,523.7 391.1,525.7 391.2,525.7 
		392.5,523.7 392.5,526.8 393.5,526.8 393.5,522.2 392.4,522.2 	"/>
</g>
</svg>
