<?xml version="1.0" encoding="utf-8" ?>
<svg xmlns="http://www.w3.org/2000/svg" xmlns:xlink="http://www.w3.org/1999/xlink" width="75" height="102">
    <defs>
        <clipPath id="clip_0">
            <rect x="-170" width="1440" height="2440" clip-rule="evenodd"/>
        </clipPath>
    </defs>
    <g clip-path="url(#clip_0)">
        <path fill="rgb(255,255,255)" stroke="none" transform="translate(8.62402 70.5677)"
              d="M0.649883 3.24062L4.02225 3.24062L4.02225 5.89687L4.6897 5.89687L4.6897 0L4.02225 0L4.02225 2.62083L0.649883 2.62083L0.649883 0L0 0L0 5.89687L0.649883 5.89687L0.649883 3.24062Z"/>
    </g>
    <defs>
        <clipPath id="clip_1">
            <rect x="-170" width="1440" height="2440" clip-rule="evenodd"/>
        </clipPath>
    </defs>
    <g clip-path="url(#clip_1)">
        <path fill="rgb(255,255,255)" stroke="none" transform="translate(17.9683 70.5677)"
              d="M0.667447 3.22292L3.86417 3.22292L3.86417 2.62083L0.667447 2.62083L0.667447 0.602083L4.23302 0.602083L4.23302 0L0 0L0 5.89687L4.26815 5.89687L4.26815 5.29479L0.667447 5.29479L0.667447 3.22292Z"/>
    </g>
    <defs>
        <clipPath id="clip_2">
            <rect x="-170" width="1440" height="2440" clip-rule="evenodd"/>
        </clipPath>
    </defs>
    <g clip-path="url(#clip_2)">
        <path fill="rgb(255,255,255)" stroke="none" transform="translate(26.0833 70.5323)"
              d="M0 5.93229L2.66979 0L3.26698 0L5.93677 5.93229L5.23419 5.93229L4.54918 4.37396L1.37002 4.37396L0.685012 5.93229L0 5.93229ZM2.96838 0.779167L1.63349 3.77188L4.30328 3.77188L2.96838 0.779167Z"
              fill-rule="evenodd"/>
    </g>
    <defs>
        <clipPath id="clip_3">
            <rect x="-170" width="1440" height="2440" clip-rule="evenodd"/>
        </clipPath>
    </defs>
    <g clip-path="url(#clip_3)">
        <path fill="rgb(255,255,255)" stroke="none" transform="translate(36.3584 70.5677)"
              d="M4.83021 5.89687L4.02225 5.89687L2.33607 3.6125L0.667447 3.6125L0.667447 5.89687L0 5.89687L0 0L2.49415 0C3.21429 0 3.79391 0.2125 4.16276 0.584375C4.46136 0.885417 4.61944 1.29271 4.61944 1.75312L4.61944 1.77083C4.61944 2.74479 3.95199 3.31146 3.03864 3.48854L4.83021 5.89687ZM2.45902 0.619792L0.649883 0.619792L0.649883 3.02813L2.44145 3.02813C3.31967 3.02813 3.95199 2.56771 3.95199 1.80625L3.95199 1.78854C3.95199 1.0625 3.40749 0.619792 2.45902 0.619792Z"
              fill-rule="evenodd"/>
    </g>
    <defs>
        <clipPath id="clip_4">
            <rect x="-170" width="1440" height="2440" clip-rule="evenodd"/>
        </clipPath>
    </defs>
    <g clip-path="url(#clip_4)">
        <path fill="rgb(255,255,255)" stroke="none" transform="translate(50.9192 70.5677)"
              d="M4.95316 5.89687L5.60304 5.89687L5.60304 0L4.9356 0L2.8103 3.22292L0.667447 0L0 0L0 5.89687L0.649883 5.89687L0.649883 1.13333L2.77518 4.28542L2.8103 4.28542L4.95316 1.11563L4.95316 5.89687Z"/>
    </g>
    <defs>
        <clipPath id="clip_5">
            <rect x="-170" width="1440" height="2440" clip-rule="evenodd"/>
        </clipPath>
    </defs>
    <g clip-path="url(#clip_5)">
        <path fill="rgb(255,255,255)" stroke="none" transform="translate(60.5796 70.5677)"
              d="M3.1089 5.89687L3.1089 3.55938L5.53279 0L4.75995 0L2.77518 2.95729L0.807963 0L0 0L2.44145 3.55938L2.44145 5.89687L3.1089 5.89687Z"/>
    </g>
    <defs>
        <clipPath id="clip_6">
            <rect x="-170" width="1440" height="2440" clip-rule="evenodd"/>
        </clipPath>
    </defs>
    <g clip-path="url(#clip_6)">
        <path fill="rgb(255,255,255)" stroke="none" transform="translate(8.62402 79.7229)"
              d="M11.9438 4.63958L11.9438 4.675C11.9438 6.76458 10.8548 8.14583 9.18618 8.87187L12.4005 13.6L8.07963 13.6L5.37471 9.49167L3.74122 9.49167L3.74122 13.6L0 13.6L0 0L6.35831 0C8.41335 0 9.83607 0.53125 10.7494 1.46979C11.5398 2.24896 11.9438 3.29375 11.9438 4.63958ZM6.20023 6.53438C7.46487 6.53438 8.20258 5.91458 8.20258 4.92292L8.20258 4.8875C8.20258 3.825 7.42974 3.27604 6.18267 3.27604L3.74122 3.27604L3.74122 6.53438L6.20023 6.53438Z"
              fill-rule="evenodd"/>
    </g>
    <defs>
        <clipPath id="clip_7">
            <rect x="-170" width="1440" height="2440" clip-rule="evenodd"/>
        </clipPath>
    </defs>
    <g clip-path="url(#clip_7)">
        <path fill="rgb(255,255,255)" stroke="none" transform="translate(22.3945 79.4573)"
              d="M0 7.06563C0 3.16979 3.1089 0 7.27166 0C11.4169 0 14.5082 3.11667 14.5082 7.03021L14.5082 7.06563C14.5082 10.9615 11.3993 14.1313 7.23653 14.1313C3.07377 14.1313 0 10.9969 0 7.10104L0 7.06563ZM7.27166 10.7313C9.3267 10.7313 10.6967 9.06667 10.6967 7.10104L10.6967 7.06563C10.6967 5.1 9.29157 3.4 7.23653 3.4C5.19906 3.4 3.82904 5.06458 3.82904 7.03021L3.82904 7.06563C3.82904 9.03125 5.23419 10.7313 7.27166 10.7313Z"
              fill-rule="evenodd"/>
    </g>
    <defs>
        <clipPath id="clip_8">
            <rect x="-170" width="1440" height="2440" clip-rule="evenodd"/>
        </clipPath>
    </defs>
    <g clip-path="url(#clip_8)">
        <path fill="rgb(255,255,255)" stroke="none" transform="translate(37.2893 79.6344)"
              d="M0 13.6885L5.726 0L9.34426 0L15.0878 13.6885L11.0831 13.6885L10.0995 11.2625L4.90047 11.2625L3.93443 13.6885L0 13.6885ZM7.51756 4.4625L5.98946 8.32292L9.0281 8.32292L7.51756 4.4625Z"
              fill-rule="evenodd"/>
    </g>
    <defs>
        <clipPath id="clip_9">
            <rect x="-170" width="1440" height="2440" clip-rule="evenodd"/>
        </clipPath>
    </defs>
    <g clip-path="url(#clip_9)">
        <path fill="rgb(255,255,255)" stroke="none" transform="translate(54.4321 79.7229)"
              d="M11.9614 4.63958L11.9614 4.675C11.9614 6.76458 10.8724 8.14583 9.20375 8.87187L12.418 13.6L8.09719 13.6L5.37471 9.49167L3.74122 9.49167L3.74122 13.6L0 13.6L0 0L6.37588 0C8.43091 0 9.85363 0.53125 10.767 1.46979C11.5574 2.24896 11.9614 3.29375 11.9614 4.63958ZM6.20023 6.53438C7.46487 6.53438 8.20258 5.91458 8.20258 4.92292L8.20258 4.8875C8.20258 3.825 7.42974 3.27604 6.18267 3.27604L3.74122 3.27604L3.74122 6.53438L6.20023 6.53438Z"
              fill-rule="evenodd"/>
    </g>
    <defs>
        <clipPath id="clip_10">
            <rect x="-170" width="1440" height="2440" clip-rule="evenodd"/>
        </clipPath>
    </defs>
    <g clip-path="url(#clip_10)">
        <path fill="rgb(0,0,0)" stroke="none"
              d="M0 0L0 102L75 102L75 0L0 0ZM20.4801 22.0115L36.9555 22.0115C39.1686 22.0115 41.3817 21.3917 43.226 20.276L62.7927 9.11979C63.5304 8.62396 64.5141 8.62396 65.2518 8.99583C65.9895 9.49167 66.4813 10.2354 66.3583 11.2271L66.3583 54.7365C66.3583 55.6042 65.8665 56.4719 65.1288 56.8438C64.8829 56.9677 64.3911 57.0917 64.0222 57.0917C63.6534 57.0917 63.1616 56.9677 62.7927 56.7198L43.226 45.5635C41.3817 44.4479 39.1686 43.8281 36.9555 43.8281L20.4801 43.8281C13.9637 43.8281 8.67682 38.8698 8.67682 32.9198C8.67682 26.9698 13.9637 22.0115 20.4801 22.0115ZM31.5457 63.9271C31.2998 65.0427 30.3162 65.7865 29.2096 65.7865L18.3899 65.7865C17.0375 65.7865 15.9309 64.6708 15.9309 63.3073L15.9309 48.1844C17.4063 48.5563 18.8817 48.8042 20.4801 48.8042L34.8653 48.8042L34.4965 50.4156L33.3899 55.374L31.5457 63.9271ZM31.3349 76.4646L32.0375 76.4646L29.3852 70.5323L28.7705 70.5323L26.1007 76.4646L26.7857 76.4646L27.4707 74.9063L30.6499 74.9063L31.3349 76.4646ZM8.60656 70.5677L9.29157 70.5677L9.29157 73.1885L12.6464 73.1885L12.6464 70.5677L13.3138 70.5677L13.3138 76.4646L12.6464 76.4646L12.6464 73.8083L9.274 73.8083L9.274 76.4646L8.60656 76.4646L8.60656 70.5677ZM22.2541 76.4646L17.9684 76.4646L17.9684 70.5677L22.2014 70.5677L22.2014 71.1698L18.6358 71.1698L18.6358 73.1885L21.8326 73.1885L21.8326 73.7906L18.6358 73.7906L18.6358 75.8625L22.2541 75.8625L22.2541 76.4646ZM37.0258 76.4646L36.3583 76.4646L36.3583 70.5677L38.87 70.5677C39.5902 70.5677 40.1698 70.7802 40.5386 71.1521C40.8197 71.4354 40.9953 71.8604 40.9953 72.3208L40.9953 72.3385C40.9953 73.3125 40.3279 73.8969 39.4145 74.0563L41.2061 76.4646L40.3981 76.4646L38.6944 74.1802L37.0258 74.1802L37.0258 76.4646ZM53.6944 74.8531L51.5691 71.701L51.5691 76.4646L50.9192 76.4646L50.9192 70.5677L51.5867 70.5677L53.7119 73.7906L55.8372 70.5677L56.5047 70.5677L56.5047 76.4646L55.8372 76.4646L55.8372 71.6833L53.7119 74.8354L53.6944 74.8354L53.6944 74.8531ZM61.3876 70.5677L60.5796 70.5677L63.0211 74.1271L63.0211 76.4646L63.6885 76.4646L63.6885 74.1271L66.1124 70.5677L65.3396 70.5677L63.3548 73.5073L61.3876 70.5677ZM29.6311 93.5885C33.7763 93.5885 36.9028 90.4187 36.9028 86.5229L36.9028 86.4875C36.9028 82.574 33.829 79.4573 29.6663 79.4573C25.5211 79.4573 22.3946 82.6271 22.3946 86.5229L22.3946 86.5583C22.3946 90.4719 25.4684 93.5885 29.6311 93.5885ZM47.3712 90.8969L48.3548 93.3229L52.3595 93.3229L46.6159 79.6344L43.0152 79.6344L37.2717 93.3229L41.2061 93.3229L42.1721 90.8969L47.3712 90.8969ZM13.9813 89.2146L16.7037 93.3229L21.0246 93.3229L17.8103 88.5948C19.4965 87.8687 20.5855 86.4875 20.5855 84.4156L20.5855 84.3802C20.5855 83.0344 20.1815 81.9896 19.3911 81.2104C18.4778 80.2896 17.055 79.7406 15 79.7406L8.62412 79.7406L8.62412 93.3229L12.3478 93.3229L12.3478 89.2146L13.9813 89.2146ZM59.8068 89.2146L62.5293 93.3229L66.8326 93.3229L63.6183 88.5948C65.3044 87.8687 66.3934 86.4875 66.3934 84.4156L66.3934 84.3802C66.3934 83.0344 65.9895 81.9896 65.1991 81.2104C64.2857 80.2896 62.863 79.7406 60.808 79.7406L54.4321 79.7406L54.4321 93.3229L58.1733 93.3229L58.1733 89.2146L59.8068 89.2146Z"
              fill-rule="evenodd"/>
    </g>
    <defs>
        <clipPath id="clip_11">
            <rect x="-170" width="1440" height="2440" clip-rule="evenodd"/>
        </clipPath>
    </defs>
    <g clip-path="url(#clip_11)">
        <path fill="rgb(0,0,0)" stroke="none" transform="translate(27.7166 71.2937)"
              d="M0 3.01042L2.65222 3.01042L1.33489 0L0 3.01042Z"/>
    </g>
    <defs>
        <clipPath id="clip_12">
            <rect x="-170" width="1440" height="2440" clip-rule="evenodd"/>
        </clipPath>
    </defs>
    <g clip-path="url(#clip_12)">
        <path fill="rgb(0,0,0)" stroke="none" transform="translate(58.1733 82.999)"
              d="M2.44145 0L0 0L0 3.25833L2.45902 3.25833C3.72365 3.25833 4.46136 2.63854 4.46136 1.64688L4.46136 1.61146C4.46136 0.53125 3.70609 0 2.44145 0Z"/>
    </g>
    <defs>
        <clipPath id="clip_13">
            <rect x="-170" width="1440" height="2440" clip-rule="evenodd"/>
        </clipPath>
    </defs>
    <g clip-path="url(#clip_13)">
        <path fill="rgb(0,0,0)" stroke="none" transform="translate(37.0259 71.1698)"
              d="M3.30211 1.18646L3.30211 1.18646C3.30211 0.442708 2.75761 0 1.80913 0L0 0L0 2.39063L1.79157 2.39063C2.66979 2.40833 3.30211 1.94792 3.30211 1.18646Z"/>
    </g>
    <defs>
        <clipPath id="clip_14">
            <rect x="-170" width="1440" height="2440" clip-rule="evenodd"/>
        </clipPath>
    </defs>
    <g clip-path="url(#clip_14)">
        <path fill="rgb(0,0,0)" stroke="none" transform="translate(26.2061 82.8573)"
              d="M3.40749 0C1.37002 0 0 1.66458 0 3.63021L0 3.66563C0 5.63125 1.40515 7.33125 3.44262 7.33125C5.49766 7.33125 6.86768 5.66667 6.86768 3.70104L6.86768 3.66563C6.88525 1.7 5.48009 0 3.40749 0Z"/>
    </g>
    <defs>
        <clipPath id="clip_15">
            <rect x="-170" width="1440" height="2440" clip-rule="evenodd"/>
        </clipPath>
    </defs>
    <g clip-path="url(#clip_15)">
        <path fill="rgb(0,0,0)" stroke="none" transform="translate(43.2788 84.0969)"
              d="M0 3.86042L3.02108 3.86042L1.51054 0L0 3.86042Z"/>
    </g>
    <defs>
        <clipPath id="clip_16">
            <rect x="-170" width="1440" height="2440" clip-rule="evenodd"/>
        </clipPath>
    </defs>
    <g clip-path="url(#clip_16)">
        <path fill="rgb(0,0,0)" stroke="none" transform="translate(12.3477 82.999)"
              d="M2.44145 0L0 0L0 3.25833L2.45902 3.25833C3.72365 3.25833 4.46136 2.63854 4.46136 1.64688L4.46136 1.61146C4.47892 0.53125 3.70609 0 2.44145 0Z"/>
    </g>
    <defs>
        <clipPath id="clip_17">
            <rect x="-170" width="1440" height="2440" clip-rule="evenodd"/>
        </clipPath>
    </defs>
    <g clip-path="url(#clip_17)">
        <path fill="rgb(244,215,12)" stroke="none" transform="translate(15.9309 48.1843)"
              d="M18.5656 2.23125L18.9344 0.619792L4.54918 0.619792C2.95082 0.619792 1.47541 0.371875 0 0L0 15.1229C0 16.4865 1.10656 17.6021 2.45902 17.6021L13.2787 17.6021C14.3852 17.6021 15.3689 16.8583 15.6148 15.7427L17.459 7.18958L18.5656 2.23125Z"/>
    </g>
    <defs>
        <clipPath id="clip_18">
            <rect x="-170" width="1440" height="2440" clip-rule="evenodd"/>
        </clipPath>
    </defs>
    <g clip-path="url(#clip_18)">
        <path fill="rgb(244,215,12)" stroke="none" transform="translate(8.67676 8.73071)"
              d="M11.8033 35.1151L28.2787 35.1151C30.4918 35.1151 32.7049 35.7349 34.5492 36.8505L54.1159 48.0067C54.4848 48.2547 54.9766 48.3786 55.3454 48.3786C55.7143 48.3786 56.2061 48.2547 56.452 48.1307C57.1897 47.7588 57.6815 46.8911 57.6815 46.0234L57.6815 2.49633C57.8044 1.50466 57.3126 0.760911 56.5749 0.265077C55.8372 -0.106798 54.8536 -0.106798 54.1159 0.389036L34.5492 11.5453C32.7049 12.6609 30.4918 13.2807 28.2787 13.2807L11.8033 13.2807C5.28689 13.2807 0 18.239 0 24.189C3.74408e-15 30.139 5.28689 35.1151 11.8033 35.1151Z"/>
    </g>
</svg>
