<?xml version="1.0" encoding="UTF-8"?>
<svg width="100px" height="100px" viewBox="0 0 100 100" version="1.1" xmlns="http://www.w3.org/2000/svg" xmlns:xlink="http://www.w3.org/1999/xlink">
    <!-- Generator: Sketch 50 (54983) - http://www.bohemiancoding.com/sketch -->
    <title>ic/sad-face/desktop</title>
    <desc>Created with Sketch.</desc>
    <defs>
        <polygon id="path-1" points="0.0163043478 0 100 0 100 100 0.0163043478 100"></polygon>
    </defs>
    <g id="Symbols" stroke="none" stroke-width="1" fill="none" fill-rule="evenodd">
        <g id="ic/sad-face/desktop">
            <g>
                <g id="Group-3">
                    <mask id="mask-2" fill="white">
                        <use xlink:href="#path-1"></use>
                    </mask>
                    <g id="Clip-2"></g>
                    <path d="M50,0 C22.4304348,0 0,22.4304348 0,50 C0,77.5695652 22.4304348,100 50,100 C77.5717391,100 100,77.5695652 100,50 C100,22.4304348 77.5717391,0 50,0 Z" id="Path" fill="#2A2A2A" mask="url(#mask-2)"></path>
                    <path d="M50,95.6521739 C24.826087,95.6521739 4.34782609,75.173913 4.34782609,50 C4.34782609,24.826087 24.826087,4.34782609 50,4.34782609 C75.1717391,4.34782609 95.6521739,24.826087 95.6521739,50 C95.6521739,75.173913 75.1717391,95.6521739 50,95.6521739 Z" id="Fill-1" fill="#FFFFFF" mask="url(#mask-2)"></path>
                </g>
                <path d="M30.4347826,41.3043478 C30.4347826,40.1065217 31.4108696,39.1304348 32.6086957,39.1304348 C33.8065217,39.1304348 34.7826087,40.1065217 34.7826087,41.3043478 C34.7826087,42.5021739 33.8065217,43.4782609 32.6086957,43.4782609 C31.4108696,43.4782609 30.4347826,42.5021739 30.4347826,41.3043478 Z M39.1304348,41.3043478 C39.1304348,37.7086957 36.2043478,34.7826087 32.6086957,34.7826087 C29.0130435,34.7826087 26.0869565,37.7086957 26.0869565,41.3043478 C26.0869565,44.9 29.0130435,47.826087 32.6086957,47.826087 C36.2043478,47.826087 39.1304348,44.9 39.1304348,41.3043478 Z" id="Fill-4" fill="#2A2A2A"></path>
                <path d="M67.3913043,43.4782609 C66.1913043,43.4782609 65.2173913,42.5021739 65.2173913,41.3043478 C65.2173913,40.1065217 66.1913043,39.1304348 67.3913043,39.1304348 C68.5913043,39.1304348 69.5652174,40.1065217 69.5652174,41.3043478 C69.5652174,42.5021739 68.5913043,43.4782609 67.3913043,43.4782609 Z M67.3913043,34.7826087 C63.7956522,34.7826087 60.8695652,37.7086957 60.8695652,41.3043478 C60.8695652,44.9 63.7956522,47.826087 67.3913043,47.826087 C70.9869565,47.826087 73.9130435,44.9 73.9130435,41.3043478 C73.9130435,37.7086957 70.9869565,34.7826087 67.3913043,34.7826087 Z" id="Fill-5" fill="#2A2A2A"></path>
                <path d="M50,60.8695652 C41.8956522,60.8695652 34.173913,64.3021739 28.8152174,70.2891304 C28.0152174,71.1847826 28.0913043,72.5586957 28.9847826,73.3586957 C29.8804348,74.1608696 31.2543478,74.0826087 32.0543478,73.1891304 C36.5891304,68.1217391 43.1304348,65.2173913 50,65.2173913 C56.8695652,65.2173913 63.4108696,68.1217391 67.9456522,73.1891304 C68.373913,73.6695652 68.9695652,73.9130435 69.5652174,73.9130435 C70.0804348,73.9130435 70.6021739,73.7304348 71.0152174,73.3586957 C71.9086957,72.5586957 71.9847826,71.1847826 71.1847826,70.2891304 C65.826087,64.3043478 58.1065217,60.8695652 50,60.8695652" id="Fill-6" fill="#2A2A2A"></path>
            </g>
        </g>
    </g>
</svg>