<?xml version="1.0" standalone="no"?>
<!DOCTYPE svg PUBLIC "-//W3C//DTD SVG 20010904//EN"
 "http://www.w3.org/TR/2001/REC-SVG-20010904/DTD/svg10.dtd">
<svg version="1.0" xmlns="http://www.w3.org/2000/svg"
 width="700.000000pt" height="700.000000pt" viewBox="0 0 700.000000 700.000000"
 preserveAspectRatio="xMidYMid meet">
<metadata>
Created by potrace 1.11, written by Peter Selinger 2001-2013
</metadata>
<g transform="translate(0.000000,700.000000) scale(0.100000,-0.100000)"
fill="#000000" stroke="none">
<path d="M0 3500 l0 -3500 3500 0 3500 0 0 3500 0 3500 -3500 0 -3500 0 0
-3500z m5432 1903 c16 -15 33 -43 39 -63 7 -23 9 -544 7 -1570 -3 -1528 -3
-1535 -24 -1570 -31 -54 -77 -80 -142 -80 -54 0 -67 7 -772 410 -395 226 -738
419 -763 430 -26 12 -81 30 -124 42 -75 21 -102 22 -788 27 l-710 6 -95 33
c-274 95 -473 301 -534 553 -20 83 -20 243 -1 329 50 212 214 406 427 504 154
72 117 69 903 76 685 7 713 8 790 29 122 32 206 77 926 489 366 209 676 382
690 385 13 3 51 4 84 1 47 -3 65 -10 87 -31z m-3327 -2673 c34 -5 93 -19 133
-30 67 -19 103 -20 572 -20 l500 0 -6 -32 c-27 -149 -207 -983 -218 -1010 -18
-41 -40 -63 -89 -83 -31 -13 -99 -15 -439 -15 -460 0 -462 1 -515 81 l-28 43
-3 544 c-3 518 -2 543 15 538 10 -3 45 -10 78 -16z"/>
</g>
</svg>
