<?xml version="1.0" encoding="utf-8" ?>
<svg xmlns="http://www.w3.org/2000/svg" xmlns:xlink="http://www.w3.org/1999/xlink" width="20" height="20">
    <defs>
        <clipPath id="clip_0">
            <rect x="-1250" y="-50" width="1440" height="2440" clip-rule="evenodd"/>
        </clipPath>
    </defs>
    <g clip-path="url(#clip_0)">
        <path fill="none" stroke="rgb(255,255,255)" stroke-width="0.9375" stroke-miterlimit="4"
              stroke-opacity="0.80000001" transform="translate(0 0.279053)"
              d="M9.83721 19.6744C15.2701 19.6744 19.6744 15.2701 19.6744 9.83721C19.6744 4.40427 15.2701 0 9.83721 0C4.40427 0 0 4.40427 0 9.83721C0 15.2701 4.40427 19.6744 9.83721 19.6744Z"/>
    </g>
    <defs>
        <clipPath id="clip_1">
            <rect x="-1250" y="-50" width="1440" height="2440" clip-rule="evenodd"/>
        </clipPath>
    </defs>
    <g clip-path="url(#clip_1)">
        <path fill="rgb(255,255,255)" fill-opacity="0.80000001" stroke="none" transform="translate(3.51208 3.25671)"
              d="M3.41395 12.4837L0.472093 14.0879C0.299535 14.1828 0.143256 14.2991 0 14.4242C1.71488 15.8702 3.92977 16.7423 6.34791 16.7423C8.74977 16.7423 10.9502 15.8833 12.66 14.4567C12.5037 14.3242 12.3307 14.2042 12.1419 14.1098L8.99163 12.5349C8.58465 12.3312 8.32651 11.9153 8.32651 11.4591L8.32651 10.2237C8.41581 10.1237 8.51721 9.99302 8.62465 9.84046C9.05535 9.23349 9.3786 8.56651 9.60372 7.86698C10.0088 7.74186 10.307 7.3693 10.307 6.92605L10.307 5.60698C10.307 5.31628 10.1781 5.05628 9.97628 4.87488L9.97628 2.96698C9.97628 2.96698 10.3688 0 6.34791 0C2.3293 0 2.7214 2.96698 2.7214 2.96698L2.7214 4.87488C2.52 5.05628 2.3907 5.31628 2.3907 5.60698L2.3907 6.92605C2.3907 7.27302 2.57442 7.57814 2.84698 7.75628C3.17767 9.19163 4.04046 10.2237 4.04046 10.2237L4.04046 11.4302C4.04046 11.8679 3.79907 12.273 3.41395 12.4837Z"/>
    </g>
</svg>
