<?xml version="1.0" encoding="UTF-8"?>
<svg width="44px" height="42px" viewBox="0 0 44 42" version="1.1" xmlns="http://www.w3.org/2000/svg" xmlns:xlink="http://www.w3.org/1999/xlink">
    <!-- Generator: Sketch 50 (54983) - http://www.bohemiancoding.com/sketch -->
    <title>ic/userpic/desktop</title>
    <desc>Created with Sketch.</desc>
    <defs></defs>
    <g id="Symbols" stroke="none" stroke-width="1" fill="none" fill-rule="evenodd">
        <g id="ic/userpic/desktop" fill="#2A2A2A">
            <path d="M22.097,22.077 C24.98,22.077 27.383,19.677 27.383,16.806 C27.383,13.923 24.98,11.52 22.097,11.52 C19.214,11.52 16.823,13.923 16.823,16.806 C16.823,19.677 19.214,22.077 22.097,22.077 Z M32.903,31.677 C32.903,28.077 25.694,26.403 22.097,26.403 C18.5,26.403 11.306,28.323 11.306,31.677 L11.306,33.597 L32.903,33.597 L32.903,31.677 Z M38.903,0 L5.306,0 C2.657,0 0.5,2.157 0.5,4.806 L0.5,37.403 C0.5,40.04 2.657,42 5.306,42 L38.903,42 C41.54,42 43.5,40.04 43.5,37.403 L43.5,4.806 C43.5,2.157 41.54,0 38.903,0 Z M5.66666667,40 L38.3333333,40 C40.082235,40 41.5,38.582235 41.5,36.8333333 L41.5,5.16666667 C41.5,3.41776496 40.082235,2 38.3333333,2 L5.66666667,2 C3.91776496,2 2.5,3.41776496 2.5,5.16666667 L2.5,36.8333333 C2.5,38.582235 3.91776496,40 5.66666667,40 Z"></path>
        </g>
    </g>
</svg>