<?xml version="1.0" encoding="UTF-8"?>
<svg width="28px" height="26px" viewBox="0 0 28 26" version="1.1" xmlns="http://www.w3.org/2000/svg" xmlns:xlink="http://www.w3.org/1999/xlink">
    <!-- Generator: Sketch 50 (54983) - http://www.bohemiancoding.com/sketch -->
    <title>ic/userpic/mobile</title>
    <desc>Created with Sketch.</desc>
    <defs></defs>
    <g id="ic/userpic/mobile" stroke="none" stroke-width="1" fill="none" fill-rule="evenodd">
        <path d="M14.060907,13.6667143 C15.8711628,13.6667143 17.3800233,12.181 17.3800233,10.4037143 C17.3800233,8.619 15.8711628,7.13142857 14.060907,7.13142857 C12.2506512,7.13142857 10.7493256,8.619 10.7493256,10.4037143 C10.7493256,12.181 12.2506512,13.6667143 14.060907,13.6667143 Z M20.8460698,19.6095714 C20.8460698,17.381 16.3194884,16.3447143 14.060907,16.3447143 C11.8023256,16.3447143 7.28516279,17.5332857 7.28516279,19.6095714 L7.28516279,20.7981429 L20.8460698,20.7981429 L20.8460698,19.6095714 Z M24.6135116,0 L3.51772093,0 C1.85439535,0 0.5,1.33528571 0.5,2.97514286 L0.5,23.1542381 C0.5,24.7866667 1.85439535,26 3.51772093,26 L24.6135116,26 C26.2693023,26 27.5,24.7866667 27.5,23.1542381 L27.5,2.97514286 C27.5,1.33528571 26.2693023,0 24.6135116,0 Z M3.74418605,24.7619048 L24.255814,24.7619048 C25.3539615,24.7619048 26.244186,23.8716803 26.244186,22.7735327 L26.244186,3.22646733 C26.244186,2.12831975 25.3539615,1.23809524 24.255814,1.23809524 L3.74418605,1.23809524 C2.64603846,1.23809524 1.75581395,2.12831975 1.75581395,3.22646733 L1.75581395,22.7735327 C1.75581395,23.8716803 2.64603846,24.7619048 3.74418605,24.7619048 Z" fill="#2A2A2A"></path>
    </g>
</svg>